<svg xmlns="http://www.w3.org/2000/svg" xmlns:xlink="http://www.w3.org/1999/xlink" width="2000" zoomAndPan="magnify" viewBox="0 0 1500 562.499983" height="750" preserveAspectRatio="xMidYMid meet" version="1.0"><defs><g/><clipPath id="a7ea424f9c"><path d="M 0.667969 168 L 156 168 L 156 393 L 0.667969 393 Z M 0.667969 168 " clip-rule="nonzero"/></clipPath><clipPath id="3d4541f583"><rect x="0" width="156" y="0" height="225"/></clipPath><clipPath id="139a176dec"><rect x="0" width="109" y="0" height="191"/></clipPath><clipPath id="75145f5228"><rect x="0" width="783" y="0" height="225"/></clipPath><clipPath id="6d64f174d7"><rect x="0" width="427" y="0" height="179"/></clipPath><clipPath id="c68ce706cd"><path d="M 1042 204 L 1499.332031 204 L 1499.332031 383 L 1042 383 Z M 1042 204 " clip-rule="nonzero"/></clipPath><clipPath id="262b0479d2"><rect x="0" width="458" y="0" height="179"/></clipPath></defs><g clip-path="url(#a7ea424f9c)"><g transform="matrix(1, 0, 0, 1, 0.000000000000000222, 168)"><g clip-path="url(#3d4541f583)"><g fill="#48a6d7" fill-opacity="1"><g transform="translate(0.666097, 173.546581)"><g><path d="M 16.984375 -125.375 C 21.878906 -125.5 26.800781 -125.378906 31.75 -125.015625 C 36.695312 -124.660156 41.554688 -124.546875 46.328125 -124.671875 C 51.566406 -124.785156 56.78125 -124.8125 61.96875 -124.75 C 67.15625 -124.695312 72.316406 -124.671875 77.453125 -124.671875 C 78.398438 -124.671875 79.347656 -124.757812 80.296875 -124.9375 C 81.253906 -125.113281 82.148438 -125.203125 82.984375 -125.203125 C 88.585938 -125.203125 94.191406 -124.929688 99.796875 -124.390625 C 105.398438 -123.859375 110.945312 -122.816406 116.4375 -121.265625 C 120.851562 -120.078125 124.878906 -118.316406 128.515625 -115.984375 C 132.148438 -113.660156 135.28125 -110.53125 137.90625 -106.59375 C 140.289062 -102.90625 142.226562 -99.0625 143.71875 -95.0625 C 145.207031 -91.070312 145.953125 -86.8125 145.953125 -82.28125 C 145.953125 -80.84375 145.769531 -79.410156 145.40625 -77.984375 C 145.050781 -76.554688 144.875 -75.1875 144.875 -73.875 C 144.757812 -70.175781 143.804688 -66.773438 142.015625 -63.671875 C 140.222656 -60.578125 138.613281 -57.476562 137.1875 -54.375 C 136.707031 -53.300781 136.078125 -52.40625 135.296875 -51.6875 C 134.523438 -50.976562 133.664062 -50.320312 132.71875 -49.71875 C 129.019531 -46.863281 125.082031 -44.507812 120.90625 -42.65625 C 116.738281 -40.8125 112.269531 -39.707031 107.5 -39.34375 C 103.675781 -39.101562 99.828125 -38.953125 95.953125 -38.890625 C 92.078125 -38.835938 88.175781 -38.691406 84.25 -38.453125 C 81.5 -38.335938 78.691406 -38.367188 75.828125 -38.546875 C 72.972656 -38.722656 70.113281 -38.691406 67.25 -38.453125 C 66.175781 -38.453125 65.101562 -38.453125 64.03125 -38.453125 C 62.957031 -38.453125 61.765625 -38.15625 60.453125 -37.5625 C 59.972656 -31.476562 59.820312 -25.335938 60 -19.140625 C 60.1875 -12.941406 60.160156 -6.800781 59.921875 -0.71875 C 59.085938 0.113281 58.25 0.53125 57.40625 0.53125 C 49.894531 0.289062 42.351562 0.113281 34.78125 0 C 27.21875 -0.113281 19.5625 -0.234375 11.8125 -0.359375 C 11.570312 -2.023438 11.476562 -3.570312 11.53125 -5 C 11.59375 -6.4375 11.625 -7.8125 11.625 -9.125 C 11.625 -14.726562 11.625 -20.390625 11.625 -26.109375 C 11.625 -31.835938 11.503906 -37.503906 11.265625 -43.109375 C 10.910156 -50.617188 10.851562 -58.160156 11.09375 -65.734375 C 11.332031 -73.304688 11.453125 -80.90625 11.453125 -88.53125 C 11.453125 -93.65625 11.332031 -98.75 11.09375 -103.8125 C 10.851562 -108.882812 10.734375 -113.988281 10.734375 -119.125 C 10.847656 -121.625 11.320312 -123.257812 12.15625 -124.03125 C 13 -124.8125 14.609375 -125.257812 16.984375 -125.375 Z M 74.765625 -106.0625 C 72.378906 -106.539062 69.960938 -106.75 67.515625 -106.6875 C 65.078125 -106.625 62.601562 -106.414062 60.09375 -106.0625 C 59.976562 -98.070312 59.890625 -90.140625 59.828125 -82.265625 C 59.765625 -74.398438 59.914062 -66.414062 60.28125 -58.3125 C 62.300781 -57.945312 64.265625 -57.796875 66.171875 -57.859375 C 68.085938 -57.921875 69.9375 -57.953125 71.71875 -57.953125 C 76.375 -57.828125 80.21875 -58.988281 83.25 -61.4375 C 86.289062 -63.882812 88.46875 -66.957031 89.78125 -70.65625 C 91.09375 -74.226562 91.78125 -77.832031 91.84375 -81.46875 C 91.90625 -85.101562 91.457031 -88.710938 90.5 -92.296875 C 90.144531 -93.960938 89.550781 -95.570312 88.71875 -97.125 C 87.882812 -98.675781 86.929688 -100.046875 85.859375 -101.234375 C 84.898438 -102.546875 83.703125 -103.648438 82.265625 -104.546875 C 80.835938 -105.441406 79.234375 -105.828125 77.453125 -105.703125 C 76.972656 -105.703125 76.523438 -105.734375 76.109375 -105.796875 C 75.691406 -105.859375 75.242188 -105.945312 74.765625 -106.0625 Z M 74.765625 -106.0625 "/></g></g></g></g></g></g><g transform="matrix(1, 0, 0, 1, 154, 192)"><g clip-path="url(#139a176dec)"><g fill="#ffffff" fill-opacity="1"><g transform="translate(0.678063, 148.141176)"><g><path d="M 61.90625 -81.484375 C 66.664062 -81.378906 71.066406 -80.414062 75.109375 -78.59375 C 79.148438 -76.769531 82.894531 -74.394531 86.34375 -71.46875 C 87.445312 -70.65625 88.476562 -69.789062 89.4375 -68.875 C 90.40625 -67.96875 91.296875 -66.960938 92.109375 -65.859375 C 93.828125 -63.628906 95.0625 -61.273438 95.8125 -58.796875 C 96.570312 -56.316406 97.003906 -53.765625 97.109375 -51.140625 C 97.210938 -46.378906 97.285156 -41.597656 97.328125 -36.796875 C 97.378906 -31.992188 97.359375 -27.210938 97.265625 -22.453125 C 97.160156 -19.316406 97.109375 -16.101562 97.109375 -12.8125 C 97.109375 -9.53125 97.257812 -6.320312 97.5625 -3.1875 C 97.664062 -2.675781 97.691406 -2.164062 97.640625 -1.65625 C 97.585938 -1.15625 97.3125 -0.601562 96.8125 0 C 92.863281 -0.40625 88.890625 -0.476562 84.890625 -0.21875 C 80.898438 0.03125 76.878906 0.15625 72.828125 0.15625 C 71.410156 -1.257812 70.195312 -2.773438 69.1875 -4.390625 C 68.175781 -6.015625 66.8125 -7.234375 65.09375 -8.046875 C 64.6875 -8.046875 64.332031 -7.914062 64.03125 -7.65625 C 63.726562 -7.40625 63.425781 -7.179688 63.125 -6.984375 C 60.1875 -4.453125 57.023438 -2.503906 53.640625 -1.140625 C 50.253906 0.222656 46.6875 1.160156 42.9375 1.671875 C 39.394531 2.078125 35.851562 2.226562 32.3125 2.125 C 28.78125 2.019531 25.34375 1.3125 22 0 C 18.257812 -1.613281 15.148438 -3.757812 12.671875 -6.4375 C 10.191406 -9.125 8.5 -12.488281 7.59375 -16.53125 C 5.863281 -24.125 6.972656 -31.304688 10.921875 -38.078125 C 12.847656 -41.316406 15.226562 -43.894531 18.0625 -45.8125 C 20.894531 -47.738281 24.078125 -49.207031 27.609375 -50.21875 C 34.898438 -52.25 42.234375 -53.109375 49.609375 -52.796875 C 51.023438 -52.796875 52.390625 -52.71875 53.703125 -52.5625 C 55.023438 -52.414062 56.34375 -52.394531 57.65625 -52.5 C 58.164062 -52.601562 58.820312 -52.601562 59.625 -52.5 C 60.4375 -52.394531 61.097656 -52.394531 61.609375 -52.5 C 61.910156 -55.332031 61.378906 -57.707031 60.015625 -59.625 C 58.648438 -61.550781 56.648438 -62.96875 54.015625 -63.875 C 50.984375 -64.988281 48.078125 -65.421875 45.296875 -65.171875 C 42.515625 -64.921875 39.65625 -64.390625 36.71875 -63.578125 C 34.59375 -63.066406 32.71875 -62.609375 31.09375 -62.203125 C 29.476562 -61.804688 27.660156 -61.050781 25.640625 -59.9375 C 24.929688 -59.53125 24.046875 -59.046875 22.984375 -58.484375 C 21.921875 -57.929688 21.289062 -57.757812 21.09375 -57.96875 C 20.582031 -58.363281 19.847656 -59.34375 18.890625 -60.90625 C 17.929688 -62.476562 16.945312 -64.273438 15.9375 -66.296875 C 14.925781 -68.328125 13.960938 -70.101562 13.046875 -71.625 C 13.554688 -72.726562 14.210938 -73.484375 15.015625 -73.890625 C 15.828125 -74.296875 16.585938 -74.648438 17.296875 -74.953125 C 21.335938 -76.578125 25.429688 -77.894531 29.578125 -78.90625 C 33.734375 -79.914062 37.984375 -80.625 42.328125 -81.03125 C 48.910156 -81.53125 55.4375 -81.679688 61.90625 -81.484375 Z M 62.21875 -37.9375 C 60.894531 -37.9375 59.625 -37.910156 58.40625 -37.859375 C 57.195312 -37.804688 56.035156 -37.679688 54.921875 -37.484375 C 50.472656 -36.472656 47.414062 -34.597656 45.75 -31.859375 C 44.082031 -29.128906 43.445312 -25.789062 43.84375 -21.84375 C 44.15625 -19.925781 44.992188 -18.304688 46.359375 -16.984375 C 47.722656 -15.671875 49.335938 -14.8125 51.203125 -14.40625 C 53.078125 -14.007812 54.820312 -14.164062 56.4375 -14.875 C 58.769531 -15.78125 60.742188 -17.296875 62.359375 -19.421875 C 62.054688 -22.359375 61.957031 -25.367188 62.0625 -28.453125 C 62.164062 -31.535156 62.21875 -34.695312 62.21875 -37.9375 Z M 62.21875 -37.9375 "/></g></g></g></g></g><g transform="matrix(1, 0, 0, 1, 261, 168)"><g clip-path="url(#75145f5228)"><g fill="#48a6d7" fill-opacity="1"><g transform="translate(0.672695, 173.546581)"><g><path d="M 134.5 -125.5625 C 135.457031 -125.675781 136.289062 -125.316406 137 -124.484375 C 137 -119.359375 136.820312 -114.171875 136.46875 -108.921875 C 136.351562 -107.609375 136.320312 -106.238281 136.375 -104.8125 C 136.4375 -103.382812 136.53125 -102.015625 136.65625 -100.703125 C 136.769531 -98.078125 136.851562 -95.453125 136.90625 -92.828125 C 136.96875 -90.203125 136.941406 -87.578125 136.828125 -84.953125 C 136.710938 -81.253906 136.710938 -77.585938 136.828125 -73.953125 C 136.941406 -70.316406 136.882812 -66.648438 136.65625 -62.953125 C 136.53125 -59.617188 136.523438 -56.28125 136.640625 -52.9375 C 136.765625 -49.601562 136.882812 -46.207031 137 -42.75 C 137.125 -40.476562 137.15625 -38.207031 137.09375 -35.9375 C 137.03125 -33.675781 137.0625 -31.414062 137.1875 -29.15625 C 137.425781 -25.457031 137.425781 -21.757812 137.1875 -18.0625 C 136.945312 -14.363281 137.003906 -10.609375 137.359375 -6.796875 C 137.484375 -6.078125 137.546875 -5.359375 137.546875 -4.640625 C 137.546875 -3.929688 137.546875 -3.21875 137.546875 -2.5 C 137.546875 -1.070312 136.890625 -0.296875 135.578125 -0.171875 C 135.210938 -0.0546875 134.582031 -0.0546875 133.6875 -0.171875 C 132.800781 -0.296875 132.117188 -0.359375 131.640625 -0.359375 C 128.421875 -0.359375 125.53125 -0.269531 122.96875 -0.09375 C 120.40625 0.0820312 117.515625 0.113281 114.296875 0 C 113.335938 0 111.457031 0 108.65625 0 C 105.851562 0 102.867188 0.0234375 99.703125 0.078125 C 96.546875 0.140625 93.804688 0.171875 91.484375 0.171875 C 89.160156 0.171875 87.9375 0.113281 87.8125 0 C 78.632812 -13.238281 69.1875 -26.296875 59.46875 -39.171875 C 49.75 -52.046875 39.765625 -64.804688 29.515625 -77.453125 C 29.867188 -73.148438 30.015625 -68.882812 29.953125 -64.65625 C 29.898438 -60.425781 29.929688 -56.164062 30.046875 -51.875 C 30.285156 -47.695312 30.460938 -43.460938 30.578125 -39.171875 C 30.703125 -34.878906 30.882812 -30.644531 31.125 -26.46875 C 31.476562 -22.300781 31.566406 -18.097656 31.390625 -13.859375 C 31.210938 -9.628906 31.300781 -5.367188 31.65625 -1.078125 C 28.675781 -0.117188 25.578125 0.117188 22.359375 -0.359375 C 19.140625 -0.835938 15.976562 -0.597656 12.875 0.359375 C 12.394531 0.00390625 12.097656 -0.410156 11.984375 -0.890625 C 11.867188 -1.367188 11.8125 -1.847656 11.8125 -2.328125 C 11.8125 -5.066406 11.8125 -7.75 11.8125 -10.375 C 11.8125 -13 11.867188 -15.679688 11.984375 -18.421875 C 12.222656 -21.285156 12.34375 -24.117188 12.34375 -26.921875 C 12.34375 -29.722656 12.398438 -32.554688 12.515625 -35.421875 C 12.515625 -39.585938 12.425781 -43.753906 12.25 -47.921875 C 12.070312 -52.097656 11.863281 -56.273438 11.625 -60.453125 C 11.507812 -63.191406 11.453125 -65.929688 11.453125 -68.671875 C 11.453125 -71.421875 11.570312 -74.164062 11.8125 -76.90625 C 11.925781 -78.457031 11.953125 -79.976562 11.890625 -81.46875 C 11.835938 -82.957031 11.691406 -84.476562 11.453125 -86.03125 C 11.328125 -88.769531 11.296875 -91.476562 11.359375 -94.15625 C 11.421875 -96.84375 11.453125 -99.5 11.453125 -102.125 C 11.453125 -105.226562 11.421875 -108.328125 11.359375 -111.421875 C 11.296875 -114.523438 11.085938 -117.628906 10.734375 -120.734375 C 10.734375 -121.328125 10.734375 -121.863281 10.734375 -122.34375 C 10.734375 -122.820312 10.851562 -123.476562 11.09375 -124.3125 C 19.195312 -123.945312 27.09375 -124.003906 34.78125 -124.484375 C 42.476562 -124.960938 50.441406 -125.082031 58.671875 -124.84375 C 59.140625 -124.363281 59.582031 -123.945312 60 -123.59375 C 60.425781 -123.238281 60.695312 -122.757812 60.8125 -122.15625 C 70.351562 -109.632812 79.953125 -97.054688 89.609375 -84.421875 C 99.265625 -71.785156 109.160156 -59.265625 119.296875 -46.859375 C 119.054688 -59.859375 119.054688 -72.765625 119.296875 -85.578125 C 119.535156 -98.398438 119.359375 -111.25 118.765625 -124.125 C 119.835938 -124.363281 120.878906 -124.601562 121.890625 -124.84375 C 122.898438 -125.082031 123.882812 -125.203125 124.84375 -125.203125 C 126.507812 -125.316406 128.144531 -125.375 129.75 -125.375 C 131.363281 -125.375 132.945312 -125.4375 134.5 -125.5625 Z M 134.5 -125.5625 "/></g></g></g><g fill="#48a6d7" fill-opacity="1"><g transform="translate(149.307202, 173.546581)"><g/></g></g><g fill="#48a6d7" fill-opacity="1"><g transform="translate(197.596934, 173.546581)"><g/></g></g><g fill="#48a6d7" fill-opacity="1"><g transform="translate(245.886666, 173.546581)"><g/></g></g><g fill="#48a6d7" fill-opacity="1"><g transform="translate(294.176398, 173.546581)"><g/></g></g><g fill="#48a6d7" fill-opacity="1"><g transform="translate(342.46613, 173.546581)"><g/></g></g><g fill="#48a6d7" fill-opacity="1"><g transform="translate(390.755863, 173.546581)"><g/></g></g><g fill="#48a6d7" fill-opacity="1"><g transform="translate(439.045595, 173.546581)"><g/></g></g><g fill="#48a6d7" fill-opacity="1"><g transform="translate(487.335327, 173.546581)"><g/></g></g><g fill="#48a6d7" fill-opacity="1"><g transform="translate(535.625059, 173.546581)"><g/></g></g><g fill="#48a6d7" fill-opacity="1"><g transform="translate(583.914792, 173.546581)"><g/></g></g><g fill="#48a6d7" fill-opacity="1"><g transform="translate(632.212864, 173.546581)"><g><path d="M 80.484375 -127.53125 C 81.441406 -127.53125 82.425781 -127.5 83.4375 -127.4375 C 84.445312 -127.375 85.429688 -127.285156 86.390625 -127.171875 C 91.273438 -127.046875 96.039062 -126.625 100.6875 -125.90625 C 105.34375 -125.195312 109.816406 -123.769531 114.109375 -121.625 C 117.453125 -119.957031 120.671875 -118.109375 123.765625 -116.078125 C 126.867188 -114.054688 129.550781 -111.492188 131.8125 -108.390625 C 132.289062 -107.671875 132.738281 -106.984375 133.15625 -106.328125 C 133.570312 -105.671875 133.898438 -104.925781 134.140625 -104.09375 C 134.734375 -102.664062 135.328125 -101.265625 135.921875 -99.890625 C 136.523438 -98.523438 136.945312 -97.003906 137.1875 -95.328125 C 137.300781 -94.847656 137.507812 -94.101562 137.8125 -93.09375 C 138.113281 -92.082031 138.082031 -91.457031 137.71875 -91.21875 C 137.476562 -91.101562 136.910156 -91.070312 136.015625 -91.125 C 135.128906 -91.1875 134.328125 -91.21875 133.609375 -91.21875 C 131.703125 -91.101562 130.003906 -91.132812 128.515625 -91.3125 C 127.023438 -91.488281 125.320312 -91.578125 123.40625 -91.578125 C 123.175781 -91.578125 122.703125 -91.578125 121.984375 -91.578125 C 121.265625 -91.578125 120.726562 -91.515625 120.375 -91.390625 C 118.46875 -91.273438 117.273438 -91.394531 116.796875 -91.75 C 116.316406 -92.113281 115.71875 -93.1875 115 -94.96875 C 112.738281 -100.570312 108.566406 -104.210938 102.484375 -105.890625 C 100.578125 -106.484375 98.726562 -107.015625 96.9375 -107.484375 C 95.15625 -107.960938 93.25 -108.203125 91.21875 -108.203125 C 89.425781 -108.203125 87.875 -108.050781 86.5625 -107.75 C 85.25 -107.457031 83.878906 -107.070312 82.453125 -106.59375 C 81.023438 -106.125 79.65625 -105.5625 78.34375 -104.90625 C 77.03125 -104.25 75.71875 -103.503906 74.40625 -102.671875 C 72.976562 -101.828125 71.816406 -100.75 70.921875 -99.4375 C 70.023438 -98.132812 69.039062 -96.882812 67.96875 -95.6875 C 65.34375 -92.707031 63.195312 -89.3125 61.53125 -85.5 C 60.570312 -82.988281 59.675781 -80.300781 58.84375 -77.4375 C 58.007812 -74.582031 57.414062 -71.785156 57.0625 -69.046875 C 56.695312 -63.796875 56.601562 -59.738281 56.78125 -56.875 C 56.96875 -54.007812 57.238281 -51.832031 57.59375 -50.34375 C 57.945312 -48.851562 58.242188 -47.515625 58.484375 -46.328125 C 59.316406 -42.390625 60.535156 -39.078125 62.140625 -36.390625 C 63.753906 -33.710938 65.632812 -31.003906 67.78125 -28.265625 C 68.257812 -27.660156 68.796875 -27.117188 69.390625 -26.640625 C 69.992188 -26.171875 70.59375 -25.753906 71.1875 -25.390625 C 73.21875 -24.203125 75.1875 -23.097656 77.09375 -22.078125 C 79 -21.066406 81.082031 -20.265625 83.34375 -19.671875 C 85.25 -19.191406 87.125 -18.863281 88.96875 -18.6875 C 90.820312 -18.507812 92.703125 -18.300781 94.609375 -18.0625 C 96.523438 -17.820312 98.613281 -18 100.875 -18.59375 C 104.09375 -19.3125 107.3125 -20.207031 110.53125 -21.28125 C 113.75 -22.351562 116.847656 -23.664062 119.828125 -25.21875 C 121.503906 -26.050781 123.085938 -27.003906 124.578125 -28.078125 C 126.066406 -29.148438 127.523438 -30.285156 128.953125 -31.484375 C 130.148438 -32.078125 131.101562 -32.3125 131.8125 -32.1875 C 132.414062 -31.476562 132.984375 -30.707031 133.515625 -29.875 C 134.054688 -29.039062 134.625 -28.203125 135.21875 -27.359375 C 136.175781 -26.410156 137.039062 -25.367188 137.8125 -24.234375 C 138.582031 -23.097656 139.382812 -21.992188 140.21875 -20.921875 C 142.132812 -18.179688 141.71875 -16.035156 138.96875 -14.484375 C 137.425781 -13.648438 135.878906 -12.722656 134.328125 -11.703125 C 132.773438 -10.691406 131.164062 -9.769531 129.5 -8.9375 C 126.507812 -7.507812 123.4375 -6.109375 120.28125 -4.734375 C 117.125 -3.367188 113.9375 -2.148438 110.71875 -1.078125 C 107.5 -0.00390625 104.25 0.796875 100.96875 1.328125 C 97.6875 1.867188 94.316406 2.320312 90.859375 2.6875 C 88.359375 2.800781 85.851562 2.769531 83.34375 2.59375 C 80.84375 2.414062 78.34375 2.328125 75.84375 2.328125 C 72.5 2.441406 69.1875 2.203125 65.90625 1.609375 C 62.625 1.015625 59.4375 0.359375 56.34375 -0.359375 C 52.644531 -1.304688 49.066406 -2.523438 45.609375 -4.015625 C 42.148438 -5.515625 38.691406 -7.21875 35.234375 -9.125 C 33.921875 -9.832031 32.640625 -10.664062 31.390625 -11.625 C 30.140625 -12.582031 28.859375 -13.476562 27.546875 -14.3125 C 26.347656 -15.019531 24.851562 -16.503906 23.0625 -18.765625 C 21.28125 -21.035156 19.582031 -23.539062 17.96875 -26.28125 C 16.363281 -29.03125 15.082031 -31.359375 14.125 -33.265625 C 13.882812 -33.742188 13.492188 -34.816406 12.953125 -36.484375 C 12.421875 -38.148438 11.859375 -40.085938 11.265625 -42.296875 C 10.671875 -44.503906 10.132812 -46.59375 9.65625 -48.5625 C 9.175781 -50.53125 8.9375 -51.929688 8.9375 -52.765625 C 8.820312 -54.316406 8.644531 -55.804688 8.40625 -57.234375 C 8.164062 -58.660156 8.046875 -60.148438 8.046875 -61.703125 C 8.046875 -63.492188 8.078125 -65.28125 8.140625 -67.0625 C 8.203125 -68.851562 8.410156 -70.644531 8.765625 -72.4375 C 9.003906 -73.863281 9.300781 -75.289062 9.65625 -76.71875 C 10.007812 -78.15625 10.25 -79.585938 10.375 -81.015625 C 10.613281 -81.972656 10.910156 -82.867188 11.265625 -83.703125 C 11.628906 -84.535156 11.988281 -85.367188 12.34375 -86.203125 C 13.53125 -88.953125 14.898438 -91.519531 16.453125 -93.90625 C 18.003906 -96.289062 19.554688 -98.613281 21.109375 -100.875 C 22.179688 -102.539062 23.375 -104.03125 24.6875 -105.34375 C 26 -106.65625 27.25 -108.03125 28.4375 -109.46875 C 29.03125 -110.300781 29.800781 -110.984375 30.75 -111.515625 C 31.707031 -112.054688 32.609375 -112.625 33.453125 -113.21875 C 36.785156 -115.363281 40.238281 -117.300781 43.8125 -119.03125 C 47.394531 -120.757812 51.09375 -122.160156 54.90625 -123.234375 C 57.414062 -124.066406 59.953125 -124.8125 62.515625 -125.46875 C 65.078125 -126.125 67.671875 -126.507812 70.296875 -126.625 C 71.960938 -126.75 73.660156 -126.929688 75.390625 -127.171875 C 77.117188 -127.410156 78.816406 -127.53125 80.484375 -127.53125 Z M 80.484375 -127.53125 "/></g></g></g></g></g><g transform="matrix(1, 0, 0, 1, 411, 204)"><g clip-path="url(#6d64f174d7)"><g fill="#ffffff" fill-opacity="1"><g transform="translate(0.28575, 138.579698)"><g><path d="M 58 -76.328125 C 62.445312 -76.234375 66.566406 -75.332031 70.359375 -73.625 C 74.148438 -71.925781 77.65625 -69.703125 80.875 -66.953125 C 81.914062 -66.191406 82.882812 -65.382812 83.78125 -64.53125 C 84.6875 -63.675781 85.519531 -62.726562 86.28125 -61.6875 C 87.894531 -59.601562 89.054688 -57.398438 89.765625 -55.078125 C 90.472656 -52.753906 90.875 -50.363281 90.96875 -47.90625 C 91.0625 -43.445312 91.128906 -38.96875 91.171875 -34.46875 C 91.222656 -29.96875 91.203125 -25.488281 91.109375 -21.03125 C 91.015625 -18.09375 90.96875 -15.082031 90.96875 -12 C 90.96875 -8.925781 91.109375 -5.921875 91.390625 -2.984375 C 91.484375 -2.515625 91.503906 -2.039062 91.453125 -1.5625 C 91.410156 -1.09375 91.15625 -0.570312 90.6875 0 C 86.988281 -0.375 83.265625 -0.441406 79.515625 -0.203125 C 75.773438 0.0234375 72.015625 0.140625 68.234375 0.140625 C 66.898438 -1.179688 65.757812 -2.597656 64.8125 -4.109375 C 63.863281 -5.628906 62.585938 -6.769531 60.984375 -7.53125 C 60.597656 -7.53125 60.265625 -7.410156 59.984375 -7.171875 C 59.703125 -6.941406 59.414062 -6.726562 59.125 -6.53125 C 56.382812 -4.164062 53.425781 -2.34375 50.25 -1.0625 C 47.070312 0.21875 43.726562 1.09375 40.21875 1.5625 C 36.90625 1.9375 33.585938 2.078125 30.265625 1.984375 C 26.953125 1.890625 23.734375 1.226562 20.609375 0 C 17.097656 -1.519531 14.179688 -3.535156 11.859375 -6.046875 C 9.546875 -8.554688 7.960938 -11.707031 7.109375 -15.5 C 5.492188 -22.601562 6.535156 -29.328125 10.234375 -35.671875 C 12.035156 -38.703125 14.257812 -41.117188 16.90625 -42.921875 C 19.5625 -44.722656 22.550781 -46.097656 25.875 -47.046875 C 32.695312 -48.941406 39.566406 -49.75 46.484375 -49.46875 C 47.804688 -49.46875 49.082031 -49.394531 50.3125 -49.25 C 51.550781 -49.101562 52.785156 -49.082031 54.015625 -49.1875 C 54.484375 -49.28125 55.097656 -49.273438 55.859375 -49.171875 C 56.617188 -49.078125 57.234375 -49.082031 57.703125 -49.1875 C 57.992188 -51.832031 57.5 -54.054688 56.21875 -55.859375 C 54.9375 -57.660156 53.066406 -58.988281 50.609375 -59.84375 C 47.765625 -60.882812 45.035156 -61.285156 42.421875 -61.046875 C 39.816406 -60.804688 37.140625 -60.3125 34.390625 -59.5625 C 32.398438 -59.082031 30.644531 -58.648438 29.125 -58.265625 C 27.613281 -57.890625 25.910156 -57.179688 24.015625 -56.140625 C 23.359375 -55.765625 22.53125 -55.316406 21.53125 -54.796875 C 20.539062 -54.273438 19.945312 -54.109375 19.75 -54.296875 C 19.28125 -54.671875 18.59375 -55.59375 17.6875 -57.0625 C 16.789062 -58.53125 15.867188 -60.210938 14.921875 -62.109375 C 13.972656 -64.003906 13.070312 -65.664062 12.21875 -67.09375 C 12.695312 -68.132812 13.3125 -68.84375 14.0625 -69.21875 C 14.820312 -69.601562 15.535156 -69.9375 16.203125 -70.21875 C 19.992188 -71.726562 23.832031 -72.957031 27.71875 -73.90625 C 31.601562 -74.851562 35.582031 -75.519531 39.65625 -75.90625 C 45.8125 -76.375 51.925781 -76.515625 58 -76.328125 Z M 58.28125 -35.53125 C 57.050781 -35.53125 55.863281 -35.503906 54.71875 -35.453125 C 53.582031 -35.410156 52.492188 -35.296875 51.453125 -35.109375 C 47.285156 -34.160156 44.421875 -32.40625 42.859375 -29.84375 C 41.296875 -27.289062 40.703125 -24.164062 41.078125 -20.46875 C 41.359375 -18.664062 42.140625 -17.148438 43.421875 -15.921875 C 44.703125 -14.691406 46.21875 -13.882812 47.96875 -13.5 C 49.726562 -13.125 51.363281 -13.269531 52.875 -13.9375 C 55.050781 -14.78125 56.898438 -16.195312 58.421875 -18.1875 C 58.140625 -20.9375 58.046875 -23.753906 58.140625 -26.640625 C 58.234375 -29.535156 58.28125 -32.5 58.28125 -35.53125 Z M 58.28125 -35.53125 "/></g></g></g><g fill="#ffffff" fill-opacity="1"><g transform="translate(100.207218, 138.579698)"><g><path d="M 43.0625 -100.78125 C 43.351562 -98.882812 43.398438 -97.054688 43.203125 -95.296875 C 43.015625 -93.546875 42.96875 -91.816406 43.0625 -90.109375 C 43.257812 -88.316406 43.304688 -86.539062 43.203125 -84.78125 C 43.109375 -83.03125 43.160156 -81.253906 43.359375 -79.453125 C 43.546875 -77.648438 43.660156 -75.894531 43.703125 -74.1875 C 43.753906 -72.488281 43.734375 -70.691406 43.640625 -68.796875 C 45.628906 -69.835938 47.523438 -70.832031 49.328125 -71.78125 C 51.128906 -72.726562 52.925781 -73.582031 54.71875 -74.34375 C 60.03125 -76.707031 65.382812 -78.222656 70.78125 -78.890625 C 76.1875 -79.554688 81.632812 -78.65625 87.125 -76.1875 C 88.644531 -75.519531 89.992188 -74.664062 91.171875 -73.625 C 92.359375 -72.582031 93.425781 -71.492188 94.375 -70.359375 C 96.84375 -67.515625 98.738281 -64.457031 100.0625 -61.1875 C 101.394531 -57.914062 102.0625 -54.390625 102.0625 -50.609375 C 102.0625 -47.859375 102.128906 -45.082031 102.265625 -42.28125 C 102.410156 -39.488281 102.390625 -36.671875 102.203125 -33.828125 C 102.109375 -31.078125 102.035156 -28.253906 101.984375 -25.359375 C 101.941406 -22.472656 101.96875 -19.660156 102.0625 -16.921875 L 102.0625 -4.40625 C 102.0625 -2.988281 101.679688 -1.707031 100.921875 -0.5625 C 99.972656 -0.46875 98.40625 -0.347656 96.21875 -0.203125 C 94.039062 -0.0664062 91.53125 0.0195312 88.6875 0.0625 C 85.851562 0.113281 83.0625 0.160156 80.3125 0.203125 C 77.5625 0.253906 75.097656 0.253906 72.921875 0.203125 C 70.742188 0.160156 69.273438 0.09375 68.515625 0 C 67.847656 -0.570312 67.515625 -1.332031 67.515625 -2.28125 C 67.515625 -3.976562 67.535156 -5.679688 67.578125 -7.390625 C 67.628906 -9.097656 67.609375 -10.753906 67.515625 -12.359375 C 67.421875 -14.453125 67.375 -16.492188 67.375 -18.484375 C 67.375 -20.472656 67.375 -22.460938 67.375 -24.453125 C 67.28125 -26.441406 67.328125 -28.429688 67.515625 -30.421875 C 67.703125 -32.410156 67.703125 -34.445312 67.515625 -36.53125 C 67.421875 -39.28125 67.347656 -42.050781 67.296875 -44.84375 C 67.253906 -47.632812 66.992188 -50.359375 66.515625 -53.015625 C 66.140625 -55.671875 65.050781 -57.847656 63.25 -59.546875 C 61.445312 -61.253906 59.03125 -62.015625 56 -61.828125 C 53.914062 -61.734375 52.046875 -61.28125 50.390625 -60.46875 C 48.734375 -59.664062 47.097656 -58.601562 45.484375 -57.28125 C 44.347656 -56.332031 43.78125 -55.101562 43.78125 -53.59375 C 43.78125 -47.332031 43.660156 -41.070312 43.421875 -34.8125 C 43.179688 -28.5625 43.109375 -22.3125 43.203125 -16.0625 C 43.203125 -13.976562 43.175781 -11.914062 43.125 -9.875 C 43.082031 -7.84375 43.207031 -5.785156 43.5 -3.703125 C 43.6875 -2.753906 43.492188 -1.898438 42.921875 -1.140625 C 40.929688 -0.472656 38.894531 -0.09375 36.8125 0 C 34.726562 0.09375 32.644531 0.09375 30.5625 0 C 27.34375 -0.09375 24.144531 -0.113281 20.96875 -0.0625 C 17.789062 -0.0195312 14.59375 0.140625 11.375 0.421875 C 11.1875 0.421875 10.972656 0.375 10.734375 0.28125 C 10.492188 0.1875 10.1875 0.09375 9.8125 0 C 9.238281 -16.675781 8.832031 -33.351562 8.59375 -50.03125 C 8.363281 -66.707031 8.53125 -83.476562 9.09375 -100.34375 C 14.78125 -100.632812 20.441406 -100.679688 26.078125 -100.484375 C 31.722656 -100.296875 37.382812 -100.394531 43.0625 -100.78125 Z M 43.0625 -100.78125 "/></g></g></g><g fill="#ffffff" fill-opacity="1"><g transform="translate(209.93603, 138.579698)"><g><path d="M 44.625 -76.046875 C 48.039062 -76.515625 51.453125 -76.75 54.859375 -76.75 C 58.273438 -76.75 61.6875 -76.421875 65.09375 -75.765625 C 67.28125 -75.378906 69.4375 -74.832031 71.5625 -74.125 C 73.695312 -73.414062 75.804688 -72.585938 77.890625 -71.640625 C 81.492188 -70.117188 84.664062 -68.101562 87.40625 -65.59375 C 90.15625 -63.082031 92.578125 -60.171875 94.671875 -56.859375 C 96.179688 -54.484375 97.335938 -51.96875 98.140625 -49.3125 C 98.953125 -46.664062 99.640625 -43.96875 100.203125 -41.21875 C 100.773438 -38.375 100.96875 -35.53125 100.78125 -32.6875 C 100.59375 -29.84375 100.164062 -27.050781 99.5 -24.3125 C 98.550781 -20.332031 96.84375 -16.773438 94.375 -13.640625 C 93.625 -12.691406 92.890625 -11.71875 92.171875 -10.71875 C 91.460938 -9.726562 90.632812 -8.859375 89.6875 -8.109375 C 85.613281 -4.316406 81.113281 -1.6875 76.1875 -0.21875 C 71.257812 1.25 66.09375 2.128906 60.6875 2.421875 C 58.601562 2.421875 56.445312 2.46875 54.21875 2.5625 C 52 2.65625 49.796875 2.609375 47.609375 2.421875 C 45.148438 2.222656 42.6875 1.957031 40.21875 1.625 C 37.757812 1.300781 35.347656 0.664062 32.984375 -0.28125 C 32.878906 -0.28125 32.78125 -0.300781 32.6875 -0.34375 C 32.59375 -0.394531 32.5 -0.421875 32.40625 -0.421875 C 28.050781 -1.460938 24.257812 -3.210938 21.03125 -5.671875 C 17.8125 -8.140625 14.972656 -11.082031 12.515625 -14.5 C 9.191406 -19.144531 7.25 -24.304688 6.6875 -29.984375 C 6.394531 -33.023438 6.34375 -36.035156 6.53125 -39.015625 C 6.726562 -42.003906 7.253906 -44.96875 8.109375 -47.90625 C 9.992188 -54.15625 12.925781 -59.316406 16.90625 -63.390625 C 20.894531 -67.460938 25.921875 -70.546875 31.984375 -72.640625 C 34.066406 -73.390625 36.171875 -74.070312 38.296875 -74.6875 C 40.429688 -75.3125 42.539062 -75.765625 44.625 -76.046875 Z M 54.859375 -60.984375 C 52.679688 -61.171875 50.644531 -60.644531 48.75 -59.40625 C 46.851562 -58.175781 45.53125 -56.472656 44.78125 -54.296875 C 43.726562 -51.359375 42.800781 -48.421875 42 -45.484375 C 41.195312 -42.546875 40.890625 -39.515625 41.078125 -36.390625 C 41.265625 -33.921875 41.476562 -31.429688 41.71875 -28.921875 C 41.957031 -26.410156 42.550781 -23.925781 43.5 -21.46875 C 43.78125 -20.707031 44.179688 -19.921875 44.703125 -19.109375 C 45.222656 -18.304688 45.769531 -17.578125 46.34375 -16.921875 C 48.238281 -14.546875 50.507812 -13.164062 53.15625 -12.78125 C 55.8125 -12.40625 58.226562 -13.359375 60.40625 -15.640625 C 61.351562 -16.492188 62.132812 -17.460938 62.75 -18.546875 C 63.363281 -19.640625 63.863281 -20.800781 64.25 -22.03125 C 65.007812 -24.5 65.503906 -26.988281 65.734375 -29.5 C 65.972656 -32.007812 66.09375 -34.539062 66.09375 -37.09375 L 66.09375 -43.0625 C 66 -45.53125 65.691406 -48.039062 65.171875 -50.59375 C 64.648438 -53.15625 63.488281 -55.382812 61.6875 -57.28125 C 60.738281 -58.320312 59.71875 -59.175781 58.625 -59.84375 C 57.539062 -60.507812 56.285156 -60.890625 54.859375 -60.984375 Z M 54.859375 -60.984375 "/></g></g></g><g fill="#ffffff" fill-opacity="1"><g transform="translate(316.679999, 138.579698)"><g><path d="M 78.609375 -75.328125 C 79.929688 -75.046875 81.207031 -74.8125 82.4375 -74.625 C 83.675781 -74.4375 84.910156 -74.007812 86.140625 -73.34375 C 90.023438 -71.257812 93.148438 -68.65625 95.515625 -65.53125 C 97.890625 -62.40625 99.21875 -58.519531 99.5 -53.875 C 99.6875 -50.550781 99.753906 -47.207031 99.703125 -43.84375 C 99.660156 -40.476562 99.6875 -37.140625 99.78125 -33.828125 C 99.96875 -28.328125 100.109375 -22.804688 100.203125 -17.265625 C 100.296875 -11.722656 100.394531 -6.203125 100.5 -0.703125 C 100.207031 -0.328125 99.921875 -0.113281 99.640625 -0.0625 C 99.359375 -0.0195312 99.023438 0 98.640625 0 C 95.609375 0.09375 92.550781 0.140625 89.46875 0.140625 C 86.394531 0.140625 83.34375 0.1875 80.3125 0.28125 C 78.507812 0.28125 76.828125 0.300781 75.265625 0.34375 C 73.703125 0.394531 72.019531 0.515625 70.21875 0.703125 C 69.457031 0.703125 68.742188 0.65625 68.078125 0.5625 C 67.421875 0.46875 66.757812 0.09375 66.09375 -0.5625 C 65.71875 -1.320312 65.550781 -2.054688 65.59375 -2.765625 C 65.644531 -3.484375 65.671875 -4.171875 65.671875 -4.828125 C 65.671875 -7.578125 65.644531 -10.347656 65.59375 -13.140625 C 65.550781 -15.941406 65.53125 -18.671875 65.53125 -21.328125 C 65.53125 -24.359375 65.53125 -27.34375 65.53125 -30.28125 C 65.53125 -33.21875 65.4375 -36.15625 65.25 -39.09375 C 65.144531 -41.175781 65.09375 -43.1875 65.09375 -45.125 C 65.09375 -47.070312 65.09375 -49.132812 65.09375 -51.3125 C 65.382812 -53.488281 64.984375 -55.3125 63.890625 -56.78125 C 62.796875 -58.25 61.347656 -59.242188 59.546875 -59.765625 C 57.753906 -60.285156 55.863281 -60.171875 53.875 -59.421875 C 52.070312 -58.753906 50.390625 -57.800781 48.828125 -56.5625 C 47.265625 -55.332031 45.675781 -54.101562 44.0625 -52.875 C 43.78125 -51.925781 43.539062 -50.929688 43.34375 -49.890625 C 43.15625 -48.847656 43.0625 -47.804688 43.0625 -46.765625 C 43.0625 -42.117188 43.0625 -37.519531 43.0625 -32.96875 C 43.0625 -28.425781 43.109375 -23.832031 43.203125 -19.1875 C 43.304688 -16.25 43.453125 -13.285156 43.640625 -10.296875 C 43.828125 -7.316406 43.875 -4.3125 43.78125 -1.28125 C 43.019531 -0.613281 42.1875 -0.234375 41.28125 -0.140625 C 40.382812 -0.046875 39.460938 0 38.515625 0 L 9.375 0 C 9 -12.226562 8.765625 -24.570312 8.671875 -37.03125 C 8.578125 -49.488281 8.578125 -61.878906 8.671875 -74.203125 C 11.515625 -74.296875 14.191406 -74.410156 16.703125 -74.546875 C 19.210938 -74.691406 21.890625 -74.785156 24.734375 -74.828125 C 27.578125 -74.878906 30.796875 -74.671875 34.390625 -74.203125 C 35.335938 -72.960938 36.210938 -71.515625 37.015625 -69.859375 C 37.828125 -68.203125 38.847656 -66.851562 40.078125 -65.8125 C 41.972656 -67.132812 43.820312 -68.34375 45.625 -69.4375 C 47.425781 -70.53125 49.367188 -71.453125 51.453125 -72.203125 C 55.910156 -73.816406 60.363281 -75.023438 64.8125 -75.828125 C 69.269531 -76.640625 73.867188 -76.472656 78.609375 -75.328125 Z M 78.609375 -75.328125 "/></g></g></g></g></g><g clip-path="url(#c68ce706cd)"><g transform="matrix(1, 0, 0, 1, 1042, 204)"><g clip-path="url(#262b0479d2)"><g fill="#ffffff" fill-opacity="1"><g transform="translate(0.615548, 138.437142)"><g><path d="M 43.0625 -100.78125 C 43.351562 -98.882812 43.398438 -97.054688 43.203125 -95.296875 C 43.015625 -93.546875 42.96875 -91.816406 43.0625 -90.109375 C 43.257812 -88.316406 43.304688 -86.539062 43.203125 -84.78125 C 43.109375 -83.03125 43.160156 -81.253906 43.359375 -79.453125 C 43.546875 -77.648438 43.660156 -75.894531 43.703125 -74.1875 C 43.753906 -72.488281 43.734375 -70.691406 43.640625 -68.796875 C 45.628906 -69.835938 47.523438 -70.832031 49.328125 -71.78125 C 51.128906 -72.726562 52.925781 -73.582031 54.71875 -74.34375 C 60.03125 -76.707031 65.382812 -78.222656 70.78125 -78.890625 C 76.1875 -79.554688 81.632812 -78.65625 87.125 -76.1875 C 88.644531 -75.519531 89.992188 -74.664062 91.171875 -73.625 C 92.359375 -72.582031 93.425781 -71.492188 94.375 -70.359375 C 96.84375 -67.515625 98.738281 -64.457031 100.0625 -61.1875 C 101.394531 -57.914062 102.0625 -54.390625 102.0625 -50.609375 C 102.0625 -47.859375 102.128906 -45.082031 102.265625 -42.28125 C 102.410156 -39.488281 102.390625 -36.671875 102.203125 -33.828125 C 102.109375 -31.078125 102.035156 -28.253906 101.984375 -25.359375 C 101.941406 -22.472656 101.96875 -19.660156 102.0625 -16.921875 L 102.0625 -4.40625 C 102.0625 -2.988281 101.679688 -1.707031 100.921875 -0.5625 C 99.972656 -0.46875 98.40625 -0.347656 96.21875 -0.203125 C 94.039062 -0.0664062 91.53125 0.0195312 88.6875 0.0625 C 85.851562 0.113281 83.0625 0.160156 80.3125 0.203125 C 77.5625 0.253906 75.097656 0.253906 72.921875 0.203125 C 70.742188 0.160156 69.273438 0.09375 68.515625 0 C 67.847656 -0.570312 67.515625 -1.332031 67.515625 -2.28125 C 67.515625 -3.976562 67.535156 -5.679688 67.578125 -7.390625 C 67.628906 -9.097656 67.609375 -10.753906 67.515625 -12.359375 C 67.421875 -14.453125 67.375 -16.492188 67.375 -18.484375 C 67.375 -20.472656 67.375 -22.460938 67.375 -24.453125 C 67.28125 -26.441406 67.328125 -28.429688 67.515625 -30.421875 C 67.703125 -32.410156 67.703125 -34.445312 67.515625 -36.53125 C 67.421875 -39.28125 67.347656 -42.050781 67.296875 -44.84375 C 67.253906 -47.632812 66.992188 -50.359375 66.515625 -53.015625 C 66.140625 -55.671875 65.050781 -57.847656 63.25 -59.546875 C 61.445312 -61.253906 59.03125 -62.015625 56 -61.828125 C 53.914062 -61.734375 52.046875 -61.28125 50.390625 -60.46875 C 48.734375 -59.664062 47.097656 -58.601562 45.484375 -57.28125 C 44.347656 -56.332031 43.78125 -55.101562 43.78125 -53.59375 C 43.78125 -47.332031 43.660156 -41.070312 43.421875 -34.8125 C 43.179688 -28.5625 43.109375 -22.3125 43.203125 -16.0625 C 43.203125 -13.976562 43.175781 -11.914062 43.125 -9.875 C 43.082031 -7.84375 43.207031 -5.785156 43.5 -3.703125 C 43.6875 -2.753906 43.492188 -1.898438 42.921875 -1.140625 C 40.929688 -0.472656 38.894531 -0.09375 36.8125 0 C 34.726562 0.09375 32.644531 0.09375 30.5625 0 C 27.34375 -0.09375 24.144531 -0.113281 20.96875 -0.0625 C 17.789062 -0.0195312 14.59375 0.140625 11.375 0.421875 C 11.1875 0.421875 10.972656 0.375 10.734375 0.28125 C 10.492188 0.1875 10.1875 0.09375 9.8125 0 C 9.238281 -16.675781 8.832031 -33.351562 8.59375 -50.03125 C 8.363281 -66.707031 8.53125 -83.476562 9.09375 -100.34375 C 14.78125 -100.632812 20.441406 -100.679688 26.078125 -100.484375 C 31.722656 -100.296875 37.382812 -100.394531 43.0625 -100.78125 Z M 43.0625 -100.78125 "/></g></g></g><g fill="#ffffff" fill-opacity="1"><g transform="translate(110.343109, 138.437142)"><g><path d="M 53.734375 -76.609375 C 59.609375 -76.046875 64.675781 -74.695312 68.9375 -72.5625 C 73.195312 -70.425781 77.414062 -67.273438 81.59375 -63.109375 C 82.445312 -62.253906 83.132812 -61.304688 83.65625 -60.265625 C 84.175781 -59.222656 84.71875 -58.179688 85.28125 -57.140625 C 87.363281 -53.347656 88.640625 -49.554688 89.109375 -45.765625 C 89.585938 -41.972656 89.734375 -37.804688 89.546875 -33.265625 C 89.546875 -32.691406 89.453125 -32.125 89.265625 -31.5625 C 89.171875 -31.082031 88.789062 -30.863281 88.125 -30.90625 C 87.457031 -30.957031 86.890625 -30.984375 86.421875 -30.984375 C 83.859375 -30.984375 81.628906 -30.9375 79.734375 -30.84375 C 77.835938 -30.75 75.921875 -30.675781 73.984375 -30.625 C 72.046875 -30.582031 69.796875 -30.609375 67.234375 -30.703125 C 63.722656 -30.890625 60.257812 -30.9375 56.84375 -30.84375 C 53.4375 -30.75 49.984375 -30.796875 46.484375 -30.984375 C 45.816406 -30.984375 45.148438 -30.910156 44.484375 -30.765625 C 43.828125 -30.628906 43.164062 -30.515625 42.5 -30.421875 C 42.125 -27.484375 42.671875 -24.566406 44.140625 -21.671875 C 45.609375 -18.785156 47.664062 -16.675781 50.3125 -15.34375 C 52.5 -14.207031 54.75 -13.519531 57.0625 -13.28125 C 59.382812 -13.050781 61.734375 -13.078125 64.109375 -13.359375 C 67.140625 -13.640625 69.53125 -14.273438 71.28125 -15.265625 C 73.03125 -16.265625 75.09375 -17.570312 77.46875 -19.1875 C 78.132812 -19.664062 78.796875 -20.28125 79.453125 -21.03125 C 80.117188 -21.789062 80.832031 -22.363281 81.59375 -22.75 C 81.96875 -23.03125 82.507812 -22.625 83.21875 -21.53125 C 83.9375 -20.445312 84.742188 -19.050781 85.640625 -17.34375 C 86.535156 -15.632812 87.410156 -13.878906 88.265625 -12.078125 C 86.847656 -10.566406 85.285156 -9.078125 83.578125 -7.609375 C 81.867188 -6.140625 80.164062 -4.929688 78.46875 -3.984375 C 75.144531 -2.179688 72.15625 -0.875 69.5 -0.0625 C 66.851562 0.738281 63.632812 1.28125 59.84375 1.5625 C 57.570312 1.84375 55.25 2.003906 52.875 2.046875 C 50.507812 2.097656 48.140625 1.9375 45.765625 1.5625 C 43.492188 1.1875 41.476562 0.898438 39.71875 0.703125 C 37.96875 0.515625 35.957031 0.09375 33.6875 -0.5625 C 30.84375 -1.414062 28.332031 -2.457031 26.15625 -3.6875 C 23.976562 -4.925781 21.703125 -6.445312 19.328125 -8.25 C 16.960938 -10.144531 14.832031 -12.273438 12.9375 -14.640625 C 11.039062 -17.003906 9.570312 -19.707031 8.53125 -22.75 C 7.582031 -25.78125 6.941406 -28.859375 6.609375 -31.984375 C 6.273438 -35.109375 6.347656 -38.234375 6.828125 -41.359375 C 7.484375 -45.242188 8.546875 -48.988281 10.015625 -52.59375 C 11.484375 -56.195312 13.5 -59.609375 16.0625 -62.828125 C 17.476562 -64.628906 19.039062 -66.238281 20.75 -67.65625 C 22.457031 -69.082031 24.351562 -70.269531 26.4375 -71.21875 C 28.238281 -72.0625 29.78125 -72.789062 31.0625 -73.40625 C 32.34375 -74.03125 34.164062 -74.625 36.53125 -75.1875 C 39.46875 -75.945312 42.332031 -76.445312 45.125 -76.6875 C 47.925781 -76.925781 50.796875 -76.898438 53.734375 -76.609375 Z M 55.578125 -59.421875 C 54.148438 -60.742188 52.414062 -61.257812 50.375 -60.96875 C 48.34375 -60.6875 46.757812 -59.644531 45.625 -57.84375 C 44.207031 -55.757812 43.285156 -53.507812 42.859375 -51.09375 C 42.429688 -48.675781 42.125 -46.238281 41.9375 -43.78125 C 44.675781 -43.5 47.328125 -43.472656 49.890625 -43.703125 C 52.453125 -43.941406 55.054688 -43.96875 57.703125 -43.78125 C 58.367188 -46.238281 58.554688 -48.601562 58.265625 -50.875 C 57.984375 -53.15625 57.515625 -55.382812 56.859375 -57.5625 C 56.578125 -58.226562 56.148438 -58.847656 55.578125 -59.421875 Z M 55.578125 -59.421875 "/></g></g></g><g fill="#ffffff" fill-opacity="1"><g transform="translate(205.715168, 138.437142)"><g><path d="M 58.984375 -75.90625 C 59.367188 -75.8125 59.722656 -75.765625 60.046875 -75.765625 C 60.378906 -75.765625 60.738281 -75.671875 61.125 -75.484375 C 63.019531 -74.816406 64.914062 -74.148438 66.8125 -73.484375 C 68.707031 -72.816406 70.503906 -71.960938 72.203125 -70.921875 C 75.140625 -69.128906 77.648438 -66.972656 79.734375 -64.453125 C 81.828125 -61.941406 83.25 -58.890625 84 -55.296875 C 84.09375 -55.003906 84.140625 -54.691406 84.140625 -54.359375 C 84.140625 -54.035156 84.140625 -53.726562 84.140625 -53.4375 C 84.242188 -53.25 84.269531 -53.035156 84.21875 -52.796875 C 84.164062 -52.566406 84.140625 -52.257812 84.140625 -51.875 C 81.773438 -51.875 79.429688 -51.6875 77.109375 -51.3125 C 74.785156 -50.9375 72.394531 -50.9375 69.9375 -51.3125 C 69.550781 -51.6875 69.3125 -52.019531 69.21875 -52.3125 C 68.5625 -54.957031 67.378906 -56.988281 65.671875 -58.40625 C 63.960938 -59.832031 61.878906 -60.878906 59.421875 -61.546875 C 57.429688 -62.117188 55.507812 -62.164062 53.65625 -61.6875 C 51.8125 -61.21875 50.082031 -60.316406 48.46875 -58.984375 C 45.0625 -56.140625 42.976562 -52.492188 42.21875 -48.046875 C 41.9375 -46.617188 41.648438 -45.191406 41.359375 -43.765625 C 41.078125 -42.347656 40.84375 -40.976562 40.65625 -39.65625 C 40.269531 -37.09375 40.3125 -34.601562 40.78125 -32.1875 C 41.257812 -29.769531 41.832031 -27.378906 42.5 -25.015625 C 42.96875 -23.503906 43.703125 -22.015625 44.703125 -20.546875 C 45.703125 -19.078125 46.957031 -17.816406 48.46875 -16.765625 C 51.21875 -14.878906 54.25 -13.9375 57.5625 -13.9375 C 60.59375 -13.832031 63.390625 -14.394531 65.953125 -15.625 C 68.515625 -16.863281 70.929688 -18.382812 73.203125 -20.1875 C 73.867188 -20.75 74.507812 -21.316406 75.125 -21.890625 C 75.738281 -22.460938 76.519531 -22.9375 77.46875 -23.3125 C 79.175781 -22.175781 80.738281 -20.847656 82.15625 -19.328125 C 83.582031 -17.816406 85.050781 -16.394531 86.5625 -15.0625 C 86.46875 -14.78125 86.394531 -14.546875 86.34375 -14.359375 C 86.300781 -14.171875 86.234375 -14.03125 86.140625 -13.9375 C 83.578125 -11.5625 80.945312 -9.285156 78.25 -7.109375 C 75.550781 -4.929688 72.539062 -3.175781 69.21875 -1.84375 C 66.851562 -0.894531 64.363281 -0.234375 61.75 0.140625 C 59.144531 0.515625 56.519531 0.941406 53.875 1.421875 C 49.320312 2.273438 44.863281 2.25 40.5 1.34375 C 36.144531 0.445312 31.882812 -0.804688 27.71875 -2.421875 C 25.0625 -3.460938 22.664062 -4.832031 20.53125 -6.53125 C 18.40625 -8.238281 16.394531 -10.132812 14.5 -12.21875 C 13.550781 -13.363281 12.601562 -14.476562 11.65625 -15.5625 C 10.707031 -16.65625 9.992188 -17.957031 9.515625 -19.46875 C 8.765625 -22.5 8.007812 -25.554688 7.25 -28.640625 C 6.488281 -31.722656 6.203125 -34.875 6.390625 -38.09375 C 6.679688 -41.5 7.226562 -44.835938 8.03125 -48.109375 C 8.832031 -51.378906 10.179688 -54.53125 12.078125 -57.5625 C 13.691406 -60.125 15.515625 -62.46875 17.546875 -64.59375 C 19.585938 -66.726562 21.789062 -68.695312 24.15625 -70.5 C 26.15625 -71.925781 28.265625 -73.039062 30.484375 -73.84375 C 32.710938 -74.644531 35.015625 -75.238281 37.390625 -75.625 C 40.984375 -76.375 44.582031 -76.796875 48.1875 -76.890625 C 51.789062 -76.992188 55.390625 -76.664062 58.984375 -75.90625 Z M 58.984375 -75.90625 "/></g></g></g><g fill="#ffffff" fill-opacity="1"><g transform="translate(298.102397, 138.437142)"><g><path d="M 41.640625 -100.78125 C 42.304688 -98.882812 42.613281 -97.007812 42.5625 -95.15625 C 42.519531 -93.3125 42.5 -91.441406 42.5 -89.546875 C 42.59375 -86.046875 42.613281 -82.515625 42.5625 -78.953125 C 42.519531 -75.398438 42.5 -71.828125 42.5 -68.234375 C 42.5 -65.296875 42.566406 -62.359375 42.703125 -59.421875 C 42.847656 -56.484375 42.78125 -53.492188 42.5 -50.453125 C 42.5 -49.796875 42.519531 -49.132812 42.5625 -48.46875 C 42.613281 -47.800781 42.828125 -47.09375 43.203125 -46.34375 C 43.773438 -46.34375 44.25 -46.503906 44.625 -46.828125 C 45.007812 -47.160156 45.390625 -47.421875 45.765625 -47.609375 C 50.128906 -50.554688 54.320312 -53.6875 58.34375 -57 C 62.375 -60.3125 66.472656 -63.53125 70.640625 -66.65625 C 72.535156 -68.175781 74.5 -69.644531 76.53125 -71.0625 C 78.570312 -72.488281 80.734375 -73.722656 83.015625 -74.765625 C 85.191406 -75.710938 87.25 -76.234375 89.1875 -76.328125 C 91.132812 -76.421875 93.242188 -76.1875 95.515625 -75.625 C 96.179688 -75.425781 96.75 -75.085938 97.21875 -74.609375 C 97.695312 -74.140625 98.125 -73.671875 98.5 -73.203125 C 98.21875 -71.210938 98.144531 -69.175781 98.28125 -67.09375 C 98.425781 -65.007812 98.265625 -62.875 97.796875 -60.6875 C 93.816406 -61.925781 90.023438 -61.738281 86.421875 -60.125 C 83.765625 -58.988281 81.394531 -57.519531 79.3125 -55.71875 C 77.226562 -53.914062 75.285156 -51.925781 73.484375 -49.75 C 73.578125 -49.082031 73.765625 -48.488281 74.046875 -47.96875 C 74.335938 -47.445312 74.625 -46.953125 74.90625 -46.484375 C 77.65625 -42.023438 80.40625 -37.566406 83.15625 -33.109375 C 85.90625 -28.660156 88.84375 -24.351562 91.96875 -20.1875 C 93.863281 -17.71875 95.6875 -15.15625 97.4375 -12.5 C 99.1875 -9.851562 100.914062 -7.296875 102.625 -4.828125 C 103 -4.265625 103.328125 -3.671875 103.609375 -3.046875 C 103.898438 -2.429688 104 -1.703125 103.90625 -0.859375 C 102.101562 -0.378906 100.320312 -0.09375 98.5625 0 C 96.8125 0.09375 95.085938 0.09375 93.390625 0 C 90.828125 -0.375 88.265625 -0.488281 85.703125 -0.34375 C 83.148438 -0.207031 80.546875 -0.1875 77.890625 -0.28125 C 75.523438 -0.375 73.15625 -0.347656 70.78125 -0.203125 C 68.414062 -0.0664062 66 -0.046875 63.53125 -0.140625 C 61.164062 -4.785156 59.101562 -8.765625 57.34375 -12.078125 C 55.59375 -15.398438 53.910156 -18.363281 52.296875 -20.96875 C 50.691406 -23.570312 48.941406 -26.15625 47.046875 -28.71875 C 45.628906 -27.957031 44.398438 -26.910156 43.359375 -25.578125 C 42.878906 -21.316406 42.734375 -17.078125 42.921875 -12.859375 C 43.109375 -8.640625 43.109375 -4.445312 42.921875 -0.28125 C 42.066406 0.1875 41.285156 0.421875 40.578125 0.421875 C 39.867188 0.421875 39.132812 0.375 38.375 0.28125 C 34.019531 0 29.6875 -0.113281 25.375 -0.0625 C 21.0625 -0.0195312 16.675781 0.09375 12.21875 0.28125 C 10.226562 0.375 9.234375 -0.664062 9.234375 -2.84375 C 9.234375 -4.738281 9.28125 -6.632812 9.375 -8.53125 C 9.46875 -10.425781 9.515625 -12.273438 9.515625 -14.078125 C 9.421875 -17.671875 9.445312 -21.195312 9.59375 -24.65625 C 9.738281 -28.113281 9.664062 -31.597656 9.375 -35.109375 C 9.28125 -36.148438 9.28125 -37.191406 9.375 -38.234375 C 9.46875 -39.273438 9.515625 -40.269531 9.515625 -41.21875 C 9.421875 -45.769531 9.328125 -50.296875 9.234375 -54.796875 C 9.140625 -59.296875 9.046875 -63.820312 8.953125 -68.375 C 8.953125 -70.738281 9 -73.101562 9.09375 -75.46875 C 9.1875 -77.84375 9.234375 -80.210938 9.234375 -82.578125 C 9.234375 -84.472656 9.1875 -86.390625 9.09375 -88.328125 C 9 -90.273438 8.859375 -92.195312 8.671875 -94.09375 C 8.578125 -95.039062 8.53125 -95.988281 8.53125 -96.9375 C 8.53125 -97.882812 8.53125 -98.925781 8.53125 -100.0625 C 11.46875 -100.351562 14.332031 -100.445312 17.125 -100.34375 C 19.925781 -100.25 22.695312 -100.300781 25.4375 -100.5 C 28.1875 -100.6875 30.910156 -100.828125 33.609375 -100.921875 C 36.316406 -101.015625 38.992188 -100.96875 41.640625 -100.78125 Z M 41.640625 -100.78125 "/></g></g></g><g fill="#ffffff" fill-opacity="1"><g transform="translate(403.566008, 138.437142)"><g><path d="M 26.015625 -100.34375 C 32.453125 -101.007812 37.898438 -98.925781 42.359375 -94.09375 C 43.398438 -92.863281 44.273438 -91.515625 44.984375 -90.046875 C 45.691406 -88.578125 46 -86.941406 45.90625 -85.140625 C 45.90625 -81.640625 45.523438 -78.253906 44.765625 -74.984375 C 44.015625 -71.710938 43.117188 -68.414062 42.078125 -65.09375 C 40.554688 -60.457031 39.0625 -55.863281 37.59375 -51.3125 C 36.125 -46.757812 34.820312 -42.117188 33.6875 -37.390625 L 32.6875 -34.6875 C 31.082031 -34.113281 29.492188 -33.921875 27.921875 -34.109375 C 26.359375 -34.296875 24.820312 -34.296875 23.3125 -34.109375 C 22.550781 -34.585938 22.003906 -35.179688 21.671875 -35.890625 C 21.335938 -36.597656 21.078125 -37.285156 20.890625 -37.953125 C 19.941406 -41.835938 18.734375 -45.601562 17.265625 -49.25 C 15.796875 -52.894531 14.398438 -56.519531 13.078125 -60.125 C 12.128906 -62.6875 11.296875 -65.269531 10.578125 -67.875 C 9.867188 -70.476562 9.140625 -73.109375 8.390625 -75.765625 C 8.003906 -77.273438 7.8125 -78.8125 7.8125 -80.375 C 7.8125 -81.9375 7.910156 -83.476562 8.109375 -85 C 8.484375 -87.84375 9.453125 -90.351562 11.015625 -92.53125 C 12.578125 -94.707031 14.546875 -96.554688 16.921875 -98.078125 C 18.242188 -98.929688 19.707031 -99.472656 21.3125 -99.703125 C 22.925781 -99.941406 24.492188 -100.15625 26.015625 -100.34375 Z M 27.578125 -27.4375 C 30.035156 -27.25 32.285156 -26.75 34.328125 -25.9375 C 36.367188 -25.132812 38.238281 -23.925781 39.9375 -22.3125 C 42.019531 -20.320312 43.226562 -17.953125 43.5625 -15.203125 C 43.894531 -12.460938 43.492188 -9.8125 42.359375 -7.25 C 41.222656 -4.6875 39.421875 -2.695312 36.953125 -1.28125 C 35.441406 -0.519531 33.925781 0.117188 32.40625 0.640625 C 30.894531 1.160156 29.285156 1.375 27.578125 1.28125 C 25.203125 1.09375 22.851562 0.757812 20.53125 0.28125 C 18.21875 -0.1875 16.113281 -1.320312 14.21875 -3.125 C 11.46875 -5.6875 10.019531 -8.882812 9.875 -12.71875 C 9.738281 -16.5625 10.992188 -19.804688 13.640625 -22.453125 C 17.429688 -26.242188 22.078125 -27.90625 27.578125 -27.4375 Z M 27.578125 -27.4375 "/></g></g></g></g></g></g></svg>